<svg xmlns="http://www.w3.org/2000/svg" width="2730.667" height="2730.667" viewBox="0 0 2048 2048" fill="#FDFBF7"><path d="M888 828.9c-15.9 3.5-25.9 7.9-37.5 16.6-15.2 11.4-24.5 25.2-29.7 44.1-1.8 6.7-2.2 11.3-2.6 31.1l-.4 23.3h-7.3c-7 0-7.3.1-7.7 2.5-.5 2.5-.5 2.5 7.4 2.5h7.9l-.1 130.2-.1 130.3 29.8.2c23.1.1 29.4-.1 27.9-1-6.4-4-11.6-9-13.7-13.3l-2.4-4.9-.3-120.8L859 949h61l-.4-2.3-.3-2.2-30.2-.3-30.3-.2.4-30.3c.5-33.4 1.1-37.1 7.7-51.1 6.2-12.9 20.2-24 35.1-27.7 8.2-2 22.1-1.6 30.5.9 13 4 23.5 11.8 28.8 21.7 3.2 6.1 3 16.4-.4 23-5.7 10.8-6 15.8-1.3 21.4 7.8 9.3 23.1 3.9 25-8.8 1.8-11.8-3.9-29.5-12.7-39.8-9.3-10.7-23.9-19.3-39.4-23.4-11.6-3.1-33-3.5-44.5-1M1489.6 889c-7.5 2.3-14 9.9-15.2 17.7-1.5 10.3 5.2 20.7 15.5 23.7 6.7 2 7.5 2 13.9.1 6.2-1.9 11.5-6.3 14.4-11.8 3-6 2.2-15.2-1.8-20.9-5.4-7.9-17-11.7-26.8-8.8M639.5 939c-35.2 7.6-59.5 26.1-69.5 52.7-4 10.8-1.6 18.3 6 18.3 5.5 0 7.5-2.9 8.3-12.2 2.4-27.7 23.4-47.2 54.8-50.8 18.5-2.1 38 3.3 52.2 14.5 18.5 14.6 28.8 44.3 20.7 59.7-9.1 17.6-24.5 24.1-78 33.3-31.6 5.4-43.4 8.3-57 14.1-24.5 10.3-45.6 28.6-55.3 48-5.5 10.9-7.2 18-7.1 30.4 0 10.1.4 12.3 2.8 18.5 5.3 13.7 10 19.8 21.7 28.5 14.6 10.9 34.5 17.1 60.3 19 44.2 3.1 78.1-11.8 96.4-42.5l5.2-8.9v11c0 19 4.2 29 14.2 33.8 5.1 2.3 6.4 2.5 27.6 2.9 20.5.4 27.6-.2 20.1-1.7-4.7-.9-11.3-6-14.7-11.3-6-9.4-6.2-11.1-6.2-71 0-29.9-.3-54.3-.6-54.3s-5.2 2.5-10.8 5.5c-11.2 6.1-17.2 11.3-22.1 19-5.8 9.1-6.8 13.2-7.5 34-1 26.6-4.1 35.1-17.5 49.4-16.1 17-37 25.4-63 25.4-21 0-34.4-5.2-47.6-18.3-15.4-15.3-21.1-35.8-15.8-57.1 3.4-13.5 9.4-23.5 20.1-33.4 15.7-14.8 24.3-18.4 73.8-31.5 45.6-12 59.9-18.4 74.5-33.5 13.5-13.9 20.1-30.4 17.8-44.2-3.6-20.5-24-39.2-50.8-46.4-11.8-3.2-40.3-3.7-53-.9M1696 939c-23.3 5.4-38.4 13.1-52.3 26.7-7.2 7-10.4 11.5-14.7 20.8s-5.2 18.3-2.1 21.4c2.6 2.6 8 2.8 11.1.3 1.7-1.4 2.4-3.4 3.1-10.2.5-4.7 1.4-10.1 2-12 3.6-11.3 13.3-23.2 24.2-29.8 12.2-7.3 30-11 45-9.1 29.6 3.6 50.7 21.9 57.9 50.2 3.6 14.3.6 25.1-9.7 34.6-11.6 10.5-28.3 15.8-75.5 23.7-29.4 4.9-40 7.7-55.5 14.9-30.4 14.1-51.3 37.3-57.1 63.3-2.1 9.3-1.4 23.1 1.5 31.4 9.6 27.6 38.8 44.7 81.1 47.7 25.6 1.8 43.6-1.2 62.6-10.4 16.1-7.8 28.3-19.6 37-35.9l3.4-6.1v12.2c0 19.5 4.2 29.2 14.4 33.8 4.7 2.1 6.9 2.4 27.4 2.8 20.4.5 26.3-.1 19.6-1.7-7-1.8-13.4-8-17.6-17.2-2.3-4.9-2.3-5-2.6-62.2-.1-31.4-.5-57.2-.8-57.2-1.3 0-13.7 6.7-19.8 10.8-7.8 5.2-14.3 13.2-17.7 22-1.9 4.8-2.3 8.5-2.9 24.7-.7 16.8-1 19.9-3.4 26.8-4.3 12.7-12.1 23.3-23.6 32.2-20.9 16.1-53.7 21.6-78.1 13.1-10-3.5-17.1-8.1-24.5-15.9-10.3-10.9-15.1-22.1-16.1-37.3-1.7-27.4 15-53.3 43.2-66.9 10.1-4.8 20.1-8 48.5-15.5 47.7-12.5 62.5-18.8 76.7-32.8 14.5-14.3 21.9-31.9 19.3-46-1.9-10.2-6.3-17.8-15.4-26.8-6.7-6.4-10.3-9-17.7-12.7-14.8-7.3-22.2-8.8-43.9-9.3-15.8-.3-19.7-.1-27 1.6M348.6 941c-49 6.2-91.1 35.4-112 77.8-8.7 17.5-12.6 33.3-13.3 53.7-1.9 53.2 25.5 98.5 74.2 122.8 59.5 29.6 133.5 18.6 175.6-26.1 4.1-4.3 9.2-10.4 11.3-13.6 3.6-5 3.8-5.8 2.5-7.2-1.4-1.3-2.2-.7-7.4 6.2-13.7 17.9-38.3 34.4-63.8 42.8-24.5 8.1-54.5 9.2-75.2 2.9-32.8-9.9-55.1-31.5-67.4-65.1-8.1-22.1-11.1-54.9-7.6-84.7 4-34.4 14.7-60.4 32.2-78.2 12.8-13 26.2-20.3 44.4-24.5 12.2-2.7 36.1-3 49.4-.5 23.7 4.4 43.4 14.1 53.9 26.7 9.2 11 11.9 21.4 9.2 34.8-2 9.6-1 13.3 4.6 17.5 8.1 6.2 20.1 3.6 24.6-5.3 7.5-14.9-4.7-40.2-26.5-54.9-15.5-10.3-38.3-19.3-59.3-23.1-13-2.4-38.3-3.4-49.4-2"/><path d="M1034.5 940.7c-41.2 5-74.2 22.4-98.8 52.1-28.8 34.7-37.9 83.6-23.7 126.4 17.8 53.3 69.7 89.6 132 92.5 34.4 1.5 67.5-7.9 93.4-26.7 16.6-11.9 33.6-32.4 42.4-50.7 3.4-7.3 3.5-7.6 1.7-8.9-2.5-1.8-3.5-1.8-3.5.2 0 .8-1.8 5.3-4 9.8-10.4 21.9-31.2 41.7-57.1 54.4-33.6 16.4-72.9 19.2-103.4 7.3-28-10.8-49-34-59.1-65.1-2.5-7.8-2.5-8.2-1-12.1 6-15 21.6-30.1 40.4-39.3 16.9-8.3 27.7-10.2 64.7-11.1 49.3-1.2 68.9-5 86.8-16.8 14.1-9.4 22.7-20.8 24.2-32.2 1.4-11-4.8-28.5-14.1-39.8-20.1-24.4-64.1-41.1-106.9-40.5-6 0-12.3.3-14 .5m43 6.9c14.8 4 29.8 13 41.7 25.1 9.5 9.6 15.4 17.6 20.7 28.1 7.5 14.9 7.4 21.6-.2 29.9-11.7 12.7-38.6 19.4-92.2 22.8-25.2 1.6-36 3.6-47.8 8.5-17.3 7.2-35.1 22.4-46.2 39.2-2.7 4.2-5.3 7.7-5.7 7.7-1.3.2-3.9-9.6-5-18.7-2.7-22.4 3.7-52.4 16.9-78.5 18.9-37.4 47.6-59.9 83.8-65.8 7.4-1.2 27.1-.2 34 1.7M1296.8 941.1c-22.7 3.3-43.8 15.3-55.3 31.3-8.7 12.3-12.5 23.7-12.5 38.1 0 11.1 1.8 18.5 7 29 11.9 24.2 39.1 42.9 78.5 54 16.8 4.7 29 8.9 39.1 13.5 19.4 8.9 34.6 21.9 40.6 34.7 2.9 5.9 3.3 7.8 3.2 14.8 0 5.8-.6 9.4-2.2 13.2-7.3 17.8-26.7 31.6-51.4 36.7-9.8 2-30.1 2.1-42.8.1-51.2-7.8-79.6-34.2-67.5-62.5 1.5-3.6 3-8.5 3.2-11 .3-3.8 0-4.9-2.1-7.2-7.3-7.7-20.3-5.2-24.8 4.9-1.6 3.7-1.9 5.7-1.4 10.7 2 18.4 10.5 33.2 26.1 45.5 24.3 19.2 58.6 28.5 95.4 26 32.3-2.3 59.7-13.6 78.6-32.4 13.8-13.7 19.5-26.2 19.5-42.5 0-16-5.3-27.5-18.9-41.1-4.7-4.7-11.3-10.4-14.6-12.5-18.2-12.1-41.1-21.5-67.9-27.9-29.7-7-50.5-18.8-62.2-35.1-14.3-20-12.5-44.1 4.4-60.9 5.9-5.9 16.2-11.4 25.2-13.6 7.6-1.9 24.8-1.6 34.5.5 16.2 3.6 29.8 12.3 34.5 22.2 1.2 2.4 2.6 7.4 3.1 11.1.7 5.3 1.5 7.3 3.5 9 3.1 2.9 7.3 2.9 10.8.2 2.2-1.7 2.6-2.8 2.6-7.3 0-12-10.4-24.4-27.2-32.5-5.7-2.7-13-5.6-16.3-6.4-12.8-3.4-30.2-4.4-42.7-2.6M1495.8 946.7l-16.8.3v261.9l29.1.3c16 .2 29.3.1 29.5-.1s-1.6-1.6-4-3c-5.3-3.2-9-7.5-11.4-13.3-1.6-4-1.7-13.1-2-125.6l-.3-121.2-3.7.2c-2 .1-11.2.4-20.4.5"/></svg>
